HIERARCHY
ROOT Pelvis
{
	OFFSET 0.000000 0.000000 0.000000
	CHANNELS 6 Xposition Yposition Zposition Xrotation Yrotation Zrotation
	JOINT LeftUpLeg_virtual
	{
		OFFSET 0.000000 0.000000 0.000000
		CHANNELS 3 Xrotation Yrotation Zrotation
		JOINT LeftUpLeg
		{
			OFFSET 18.735201 -5.666702 -4.541200
			CHANNELS 3 Xrotation Yrotation Zrotation
			JOINT LeftLeg
			{
				OFFSET -0.021200 -31.938179 0.493100
				CHANNELS 3 Xrotation Yrotation Zrotation
				JOINT LeftFoot
				{
					OFFSET 0.021200 -31.938179 -4.336299
					CHANNELS 3 Xrotation Yrotation Zrotation
					JOINT LeftToeBase
					{
						OFFSET 0.943001 -26.722000 15.023500
						CHANNELS 3 Xrotation Yrotation Zrotation
						End Site
						{
							OFFSET 0 0 0
						}
					}
				}
			}
		}
	}
	JOINT RightUpLeg_virtual
	{
		OFFSET 0.000000 0.000000 0.000000
		CHANNELS 3 Xrotation Yrotation Zrotation
		JOINT RightUpLeg
		{
			OFFSET -18.735201 -5.666702 -4.541200
			CHANNELS 3 Xrotation Yrotation Zrotation
			JOINT RightLeg
			{
				OFFSET 0.018946 -31.938133 0.493100
				CHANNELS 3 Xrotation Yrotation Zrotation
				JOINT RightFoot
				{
					OFFSET -0.018946 -31.938126 -4.336299
					CHANNELS 3 Xrotation Yrotation Zrotation
					JOINT RightToeBase
					{
						OFFSET -0.943001 -26.722004 15.023500
						CHANNELS 3 Xrotation Yrotation Zrotation
						End Site
						{
							OFFSET 0 0 0
						}
					}
				}
			}
		}
	}
	JOINT Hips_virtual
	{
		OFFSET 0.000000 0.000000 0.000000
		CHANNELS 3 Xrotation Yrotation Zrotation
		JOINT Hips
		{
			OFFSET -0.000000 -0.000000 -0.000000
			CHANNELS 3 Xrotation Yrotation Zrotation
			JOINT Spine
			{
				OFFSET 0.000000 10.199997 -0.299500
				CHANNELS 3 Xrotation Yrotation Zrotation
				JOINT Spine1
				{
					OFFSET 0.000000 11.900002 -1.516600
					CHANNELS 3 Xrotation Yrotation Zrotation
					JOINT Spine2
					{
						OFFSET 0.000000 13.600006 -2.842500
						CHANNELS 3 Xrotation Yrotation Zrotation
						JOINT Neck_virtual
						{
							OFFSET 0.000000 0.000000 0.000000
							CHANNELS 3 Xrotation Yrotation Zrotation
							JOINT Neck
							{
								OFFSET 0.000000 9.624100 -2.890100
								CHANNELS 3 Xrotation Yrotation Zrotation
								JOINT Head
								{
									OFFSET 0.000000 14.068802 -1.351900
									CHANNELS 3 Xrotation Yrotation Zrotation
									End Site
									{
										OFFSET 0 0 0
									}
								}
							}
						}
						JOINT LeftShoulder_virtual
						{
							OFFSET 0.000000 0.000000 0.000000
							CHANNELS 3 Xrotation Yrotation Zrotation
							JOINT LeftShoulder
							{
								OFFSET 15.263000 10.923401 -0.547700
								CHANNELS 3 Xrotation Yrotation Zrotation
								JOINT LeftArm
								{
									OFFSET 25.438599 -2.830597 -13.032500
									CHANNELS 3 Xrotation Yrotation Zrotation
									JOINT LeftForeArm
									{
										OFFSET 29.960503 0.000000 0.000000
										CHANNELS 3 Xrotation Yrotation Zrotation
										JOINT LeftHand
										{
											OFFSET 27.849251 0.000000 0.000000
											CHANNELS 3 Xrotation Yrotation Zrotation
											End Site
											{
												OFFSET 0 0 0
											}
										}
									}
								}
							}
						}
						JOINT RightShoulder_virtual
						{
							OFFSET 0.000000 0.000000 0.000000
							CHANNELS 3 Xrotation Yrotation Zrotation
							JOINT RightShoulder
							{
								OFFSET -15.263000 10.923401 -0.547700
								CHANNELS 3 Xrotation Yrotation Zrotation
								JOINT RightArm
								{
									OFFSET -25.438599 -2.830597 -13.032500
									CHANNELS 3 Xrotation Yrotation Zrotation
									JOINT RightForeArm
									{
										OFFSET -29.960503 0.000000 0.000000
										CHANNELS 3 Xrotation Yrotation Zrotation
										JOINT RightHand
										{
											OFFSET -27.849251 0.000000 0.000000
											CHANNELS 3 Xrotation Yrotation Zrotation
											End Site
											{
												OFFSET 0 0 0
											}
										}
									}
								}
							}
						}
					}
				}
			}
		}
	}
}
MOTION
Frames: 5
Frame Time: 0.03333333
-3.285367 85.379349 10.002548 0.000000 0.000000 0.000000 -7.920674 24.637872 7.697488 -24.975690 -17.168130 7.769461 44.425873 -1.318871 0.125936 -15.489315 -4.629515 -19.826297 0.000000 0.000000 0.000000 -7.920674 24.637872 7.697488 -7.539103 -30.699583 -24.836390 52.317562 1.682191 -0.101474 -40.386499 -7.345648 12.249584 0.000000 0.000000 0.000000 -7.920674 24.637872 7.697488 0.000000 -0.000001 0.000000 18.997560 1.056153 1.385333 5.096426 1.511982 -0.476951 0.000000 0.000000 0.000000 5.088411 1.550697 -0.475987 -3.503198 -1.755636 -2.080862 0.000000 0.000000 0.000000 5.088411 1.550697 -0.475987 -0.787873 -12.075487 -26.714946 -11.942303 -3.432191 -26.261536 55.390870 -49.285194 10.889079 0.000000 0.000000 0.000000 5.088411 1.550697 -0.475987 7.717152 -7.373790 -5.050553 -43.972167 -21.360505 -11.904047 -118.831317 10.484328 148.086452 0.000000 0.000000 0.000000 
-3.362078 85.434105 10.765640 0.000000 0.000000 0.000000 -8.011324 28.571745 8.345250 -25.728418 -20.949167 6.117875 42.670575 -1.258410 0.120933 -14.206222 -4.451220 -20.613118 0.000000 0.000000 0.000000 -8.011324 28.571745 8.345250 -4.541755 -34.784063 -23.822136 49.399760 1.657705 -0.076634 -40.728387 -8.472378 12.458956 0.000000 0.000000 0.000000 -8.011324 28.571745 8.345250 0.000000 -0.000001 0.000000 19.015373 0.133876 1.536720 5.137559 -0.395260 -0.742505 0.000000 0.000000 0.000000 5.145103 -0.355856 -0.748201 -3.484074 -1.302292 -2.103265 0.000000 0.000000 0.000000 5.145103 -0.355856 -0.748201 -0.729884 -12.936521 -24.594036 -7.448408 5.738908 -26.622710 53.665893 -55.184100 15.413777 0.000000 0.000000 0.000000 5.145103 -0.355856 -0.748201 8.112592 -11.609560 1.893597 -67.056154 -34.147606 -17.067553 -102.494235 5.567651 145.072385 0.000000 0.000000 0.000000 
-3.612220 85.648880 10.968185 0.000000 0.000000 0.000000 -7.369497 29.660619 8.296562 -25.785842 -22.167181 5.856100 40.682772 -1.214050 0.112351 -13.061368 -4.088753 -20.993816 0.000000 0.000000 0.000000 -7.369497 29.660619 8.296562 -4.194688 -35.867987 -23.152407 48.133118 1.626796 -0.067176 -40.518868 -8.812290 12.189858 0.000000 0.000000 0.000000 -7.369497 29.660619 8.296562 0.000000 0.000000 0.000000 18.937039 -1.029726 1.656426 4.855966 -2.915589 -1.485522 0.000000 0.000000 0.000000 4.883687 -2.873582 -1.502392 -3.567377 -1.224542 -0.881220 0.000000 0.000000 0.000000 4.883687 -2.873582 -1.502392 -0.316024 -12.738293 -20.094181 -3.377278 12.102855 -31.052745 48.967860 -55.386967 15.024073 0.000000 0.000000 0.000000 4.883687 -2.873582 -1.502392 7.432620 -14.000967 15.289373 -88.040244 -27.657369 -16.830785 -88.510359 5.611657 143.384331 0.000000 0.000000 0.000000 
-3.808976 86.035843 10.860207 0.000000 0.000000 0.000000 -5.904582 26.667420 6.893581 -24.701885 -20.134178 7.751247 40.025332 -1.260005 0.100844 -13.432195 -3.183955 -20.660614 0.000000 0.000000 0.000000 -5.904582 26.667420 6.893581 -5.979443 -32.790318 -22.103039 48.183201 1.555072 -0.074640 -39.450257 -8.406736 11.455640 0.000000 0.000000 0.000000 -5.904582 26.667420 6.893581 0.000000 0.000001 0.000000 18.845231 -1.576264 1.492772 4.550501 -3.858608 -1.671252 0.000000 0.000000 0.000000 4.578960 -3.822012 -1.696237 -2.982882 -1.064419 0.150820 0.000000 0.000000 0.000000 4.578960 -3.822012 -1.696237 -0.221537 -12.860661 -18.877571 -1.061244 14.809868 -32.315657 50.440711 -54.077575 16.009024 0.000000 0.000000 0.000000 4.578960 -3.822012 -1.696237 7.322567 -12.708483 21.788218 -89.621781 -19.762186 -15.733672 -88.461393 9.776992 144.189979 0.000000 0.000000 0.000000 
-3.881636 86.456245 10.573174 0.000000 0.000000 0.000000 -4.295328 21.436340 4.929996 -23.364573 -16.103931 10.713439 40.481630 -1.349093 0.091238 -14.875349 -2.238864 -19.966584 0.000000 0.000000 0.000000 -4.295328 21.436340 4.929996 -8.542122 -27.448893 -20.378194 48.583740 1.457484 -0.087653 -37.630060 -7.831252 10.613421 0.000000 0.000000 0.000000 -4.295328 21.436340 4.929996 0.000000 0.000001 0.000000 19.141241 -1.510381 1.154787 5.072656 -3.373060 -1.212726 0.000000 0.000000 0.000000 5.087340 -3.346280 -1.238953 -2.827653 -0.759450 0.197762 0.000000 0.000000 0.000000 5.087340 -3.346280 -1.238953 -0.008485 -10.673452 -18.318847 -1.564254 12.468337 -31.473652 55.753810 -52.827282 17.774174 0.000000 0.000000 0.000000 5.087340 -3.346280 -1.238953 6.854851 -8.625332 17.121725 -81.879959 -24.154899 -12.454408 -95.197729 12.244533 145.632406 0.000000 0.000000 0.000000 
